<?xml version="1.0" standalone="no"?>

<!DOCTYPE svg PUBLIC "-//W3C//DTD SVG 20010904//EN"

 "http://www.w3.org/TR/2001/REC-SVG-20010904/DTD/svg10.dtd">

<svg version="1.0" xmlns="http://www.w3.org/2000/svg"

 width="1024.000000pt" height="1024.000000pt" viewBox="0 0 1024.000000 1024.000000"

 preserveAspectRatio="xMidYMid meet">

<path fill="#010101" stroke="none" d="
M0 922

C0 897 0 897 7 888

C27 862 42 839 57 812

C69 787 76 769 78 752

C79 742 81 716 82 681

C84 617 88 592 97 573

C108 550 121 541 145 539

C155 539 155 539 159 542

C167 547 175 559 179 573

C181 581 181 603 179 619

C175 656 160 721 149 754

C141 780 129 807 115 829

C91 870 51 912 9 941

L0 947

L0 922

Z

M144 884

L143 883

L154 874

C160 869 179 853 196 840

C237 807 251 795 272 775

C288 758 298 747 302 738

C305 733 304 728 300 720

C295 710 286 701 238 664

C217 647 202 631 194 616

C191 610 191 607 190 601

C190 588 194 576 201 570

C213 562 234 562 259 570

C277 576 298 591 320 615

C355 653 377 703 373 735

C372 747 368 758 363 765

C353 780 326 803 295 821

C253 846 221 861 173 877

C148 885 147 886 144 884

Z

M643 505

C640 498 633 481 631 476

L628 471

L623 471

C621 471 610 472 600 473

C562 476 502 473 443 467

C400 462 374 453 360 439

C351 430 347 422 347 414

C347 404 350 400 359 396

C370 390 379 388 394 388

C414 388 424 391 480 413

C512 426 527 432 544 435

C556 437 617 445 618 444

L618 443

L613 430

L608 417

L608 416

L609 416

L613 417

C615 418 623 422 631 425

C661 439 664 440 667 440

C672 439 673 438 746 405

C758 400 772 394 778 391

C788 386 808 378 832 367

C838 364 846 360 851 358

C856 356 864 352 871 349

C877 346 889 341 898 337

C906 333 918 328 925 325

C931 322 939 318 944 316

C949 314 958 310 964 307

C970 304 979 300 983 299

C987 297 995 293 1001 290

C1007 287 1013 285 1013 285

C1014 285 1015 287 1016 289

L1018 292

L1015 294

C1013 295 1011 296 1011 296

C1010 296 1005 298 998 301

C988 306 955 321 924 335

C891 350 874 358 868 361

C858 365 840 373 831 377

C826 379 817 383 812 386

C807 388 797 392 791 395

C785 398 778 401 776 402

C759 410 752 413 741 418

C728 423 715 429 701 436

C696 438 688 442 683 444

C677 446 672 449 671 450

C668 452 667 454 655 483

C650 496 646 507 645 507

L644 508

L643 505

Z

M166 351

C146 347 122 334 94 310

C58 282 41 249 34 200

C32 189 32 159 34 147

C38 114 50 80 66 57

C73 47 84 34 87 34

L90 33

L88 38

C87 41 83 53 78 65

C72 79 69 88 68 94

C65 116 65 150 69 169

C72 183 75 193 82 206

C87 216 88 218 96 227

C107 237 119 246 138 255

C181 276 190 280 198 286

C212 297 220 310 219 320

C217 333 211 342 199 348

C188 353 178 354 166 351

Z

M330 343

C316 339 304 333 294 323

C269 298 264 261 282 230

C287 222 299 210 308 205

C319 198 329 196 343 195

C357 195 366 196 378 202

C397 211 409 225 416 245

C430 284 408 328 368 341

C359 344 339 345 330 343

Z

"/>

<path fill="#232323" stroke="none" d="
M53 905

C54 903 56 902 56 902

L56 902

L54 905

C53 906 51 907 51 907

L51 907

L53 905

Z

M69 889

C70 887 72 886 72 886

L72 886

L70 889

C69 890 67 891 67 891

L67 891

L69 889

Z

M257 789

C257 788 259 787 259 787

L259 787

L258 789

C257 790 255 791 255 791

L255 791

L257 789

Z

M285 761

C285 760 286 760 287 759

L289 758

L287 759

C286 760 286 761 285 761

L285 761

L285 761

Z

M373 727

L373 724

L374 725

C374 726 374 728 374 729

L373 731

L373 727

Z

M80 719

L80 718

L81 719

L81 720

L81 721

L80 721

L80 719

Z

M288 705

L286 702

L289 704

C291 706 292 708 292 708

L292 708

L292 708

C292 708 290 707 288 705

Z

M81 696

L81 694

L82 695

C82 695 82 697 82 697

L81 699

L81 696

Z

M82 667

L82 666

L83 667

L83 668

L83 669

L82 669

L82 667

Z

M83 646

L83 645

L84 646

L84 647

L84 648

L83 648

L83 646

Z

M311 607

L310 605

L312 606

C313 607 314 608 314 609

L314 609

L314 609

C313 609 312 608 311 607

Z

M225 563

L226 563

L227 563

L227 564

L225 564

L224 564

L225 563

Z

M110 553

C111 551 113 550 113 550

L113 550

L111 553

C110 554 108 555 108 555

L108 555

L110 553

Z

M163 545

L161 543

L163 545

C165 546 166 547 166 548

L166 548

L166 548

C165 548 164 547 163 545

Z

M644 507

C643 507 643 506 643 506

L643 505

L644 506

L645 506

L648 500

L650 494

L651 494

L651 495

L648 501

C645 508 645 508 644 507

Z

M637 492

L633 482

L633 481

L634 481

L638 491

L642 501

L642 502

L641 502

L637 492

Z

M651 493

C651 492 651 491 652 490

L653 489

L653 490

C653 490 653 491 652 492

L651 494

L651 493

Z

M654 485

C654 484 654 483 655 482

L656 481

L656 482

C656 482 656 483 655 484

L654 486

L654 485

Z

M656 479

C657 478 658 476 659 473

L660 469

L661 469

L661 470

L659 475

L656 481

L656 479

Z

M629 472

L628 470

L629 471

C630 473 631 474 631 474

L631 475

L631 475

L630 475

L629 472

Z

M532 473

L533 473

L534 473

L534 474

L532 474

L531 474

L532 473

Z

M585 473

L586 473

L587 473

L587 474

L585 474

L584 474

L585 473

Z

M511 472

L512 472

L513 472

L513 473

L511 473

L510 473

L511 472

Z

M661 468

C661 467 661 466 662 465

L663 464

L663 465

C663 465 663 466 662 467

L661 469

L661 468

Z

M664 461

C664 460 665 458 666 457

L667 455

L667 456

C667 456 666 458 666 459

L664 462

L664 461

Z

M667 453

C667 452 671 448 672 448

L672 448

L670 451

C669 452 667 454 667 454

L667 454

L667 453

Z

M618 444

L618 442

L619 442

L619 443

L618 444

L617 446

L618 444

Z

M682 444

C683 443 685 442 686 442

L687 442

L684 444

C683 444 681 445 681 445

L680 445

L682 444

Z

M617 439

C616 439 616 438 616 437

L616 437

L617 438

L618 440

L618 441

L617 441

L617 439

Z

M667 440

C669 439 674 438 677 437

L682 434

L683 434

L683 435

L677 437

C674 439 669 440 667 441

L663 441

L667 440

Z

M656 438

L654 436

L655 436

C655 436 657 437 658 438

L661 439

L660 439

C659 439 657 438 656 438

Z

M698 436

C698 436 709 431 710 431

L711 431

L705 434

C701 436 698 437 698 437

L698 437

L698 436

Z

M615 434

C614 434 614 433 614 432

L614 432

L615 433

L616 435

L616 436

L615 436

L615 434

Z

M649 435

L647 433

L648 433

C648 433 650 434 651 435

L654 436

L653 436

C652 436 650 435 649 435

Z

M687 432

C688 431 689 431 690 431

L691 431

L689 432

C688 433 687 433 687 433

L686 433

L687 432

Z

M636 429

C633 427 630 426 630 426

L630 425

L635 427

C638 429 642 430 643 431

L645 432

L644 432

C643 432 640 431 636 429

Z

M612 427

L610 423

L610 422

L611 422

L612 426

L614 430

L614 431

L613 431

L612 427

Z

M695 429

C697 427 700 426 701 426

L702 426

L697 429

C695 430 692 431 692 431

L691 431

L695 429

Z

M716 428

C719 426 722 425 723 425

L724 425

L718 428

C715 430 712 431 712 431

L711 431

L716 428

Z

M704 425

C704 424 708 423 711 421

L718 418

L718 419

C718 419 705 425 704 425

L704 425

L704 425

Z

M727 423

C728 422 729 422 730 422

L731 422

L729 423

C728 424 727 424 727 424

L726 424

L727 423

Z

M617 420

C613 418 610 417 610 417

L609 417

L609 419

L610 422

L609 420

C609 419 608 418 608 417

L608 416

L609 416

C610 416 614 418 618 419

L625 423

L624 423

C623 423 620 422 617 420

Z

M734 420

C736 419 738 418 739 418

L740 418

L736 420

C734 421 732 422 732 422

L731 422

L734 420

Z

M743 416

C744 415 745 415 746 415

L747 415

L745 416

C744 417 743 417 743 417

L742 417

L743 416

Z

M727 414

C728 413 729 413 730 413

L731 413

L729 414

C728 415 727 415 727 415

L726 415

L727 414

Z

M750 414

C750 413 753 412 756 410

L762 407

L763 407

L763 408

L756 411

L750 414

L750 414

Z

M747 405

C749 404 751 403 752 403

L753 403

L749 405

C747 406 745 407 745 407

L744 407

L747 405

Z

M765 406

C766 405 767 405 768 405

L769 405

L767 406

C766 407 765 407 765 407

L764 407

L765 406

Z

M770 403

C772 403 773 402 773 402

L774 402

L774 403

C773 403 772 404 771 404

L769 405

L770 403

Z

M352 400

C352 399 354 398 354 398

L354 398

L353 400

C352 401 350 402 350 402

L350 402

L352 400

Z

M758 400

C759 399 760 399 761 399

L762 399

L760 400

C759 401 758 401 758 401

L757 401

L758 400

Z

M778 400

C779 399 780 399 781 399

L782 399

L780 400

C779 401 778 401 778 401

L777 401

L778 400

Z

M762 399

C762 398 765 397 768 396

L773 393

L773 393

C773 394 763 399 762 399

L762 399

L762 399

Z

M785 397

C786 396 787 396 788 396

L789 396

L787 397

C786 398 785 398 785 398

L784 398

L785 397

Z

M789 396

C789 395 790 394 792 393

L795 392

L796 392

L796 393

L792 394

L789 396

L789 396

Z

M799 391

C800 390 802 389 803 389

L804 389

L801 391

C800 391 798 392 798 392

L797 392

L799 391

Z

M780 390

C781 389 782 389 783 389

L784 389

L782 390

C781 391 780 391 780 391

L779 391

L780 390

Z

M784 389

C784 388 786 388 788 387

L791 385

L791 385

C791 386 785 389 784 389

L784 389

L784 389

Z

M810 386

C814 384 817 382 818 382

L819 382

L812 386

C808 387 805 389 805 389

L804 389

L810 386

Z

M392 387

C393 387 395 387 396 387

L398 388

L394 388

L391 388

L392 387

Z

M793 384

C794 383 795 383 796 383

L797 383

L795 384

C794 385 793 385 793 385

L792 385

L793 384

Z

M800 381

C801 380 802 380 803 380

L804 380

L802 381

C801 382 800 382 800 382

L799 382

L800 381

Z

M804 380

C804 379 806 379 808 378

L811 376

L811 376

C811 377 805 380 804 380

L804 380

L804 380

Z

M828 378

C830 376 833 375 834 375

L835 375

L830 378

C828 379 825 380 825 380

L824 380

L828 378

Z

M822 371

C825 369 828 368 829 368

L830 368

L824 371

C821 373 818 374 818 374

L817 374

L822 371

Z

M849 368

C853 366 858 364 859 364

L862 363

L852 367

C847 370 842 372 842 372

L842 372

L849 368

Z

M843 362

C845 360 848 359 849 359

L850 359

L845 362

C843 363 840 364 840 364

L839 364

L843 362

Z

M865 360

C867 360 868 359 868 359

L870 359

L868 361

C866 361 865 362 865 362

L864 362

L865 360

Z

M851 358

C852 357 853 357 854 357

L855 357

L853 358

C852 359 851 359 851 359

L850 359

L851 358

Z

M872 358

C873 357 875 356 876 356

L877 356

L874 358

C873 358 871 359 871 359

L870 359

L872 358

Z

M862 353

C865 351 868 350 869 350

L870 350

L864 353

C861 355 858 356 858 356

L857 356

L862 353

Z

M880 354

C882 353 884 352 885 352

L886 352

L882 354

C880 355 878 356 878 356

L877 356

L880 354

Z

M873 348

C874 347 875 347 876 347

L877 347

L875 348

C874 349 873 349 873 349

L872 349

L873 348

Z

M879 346

L879 345

L881 345

L882 344

L881 345

C881 346 880 346 880 346

L879 346

L879 346

Z

M902 345

C902 344 903 343 905 342

L908 341

L909 341

L909 342

L905 343

L902 345

L902 345

Z

M892 340

C893 339 895 338 896 338

L897 338

L894 340

C893 340 891 341 891 341

L890 341

L892 340

Z

M912 340

C913 339 915 338 916 338

L917 338

L914 340

C913 340 911 341 911 341

L910 341

L912 340

Z

M901 336

C903 334 906 333 907 333

L908 333

L903 336

C901 337 898 338 898 338

L897 338

L901 336

Z

M918 338

C918 337 920 336 923 334

L928 332

L929 332

L929 333

L923 335

L918 338

L918 338

Z

M914 329

L921 326

L922 326

L922 327

L916 330

C912 332 909 333 908 333

L908 333

L914 329

Z

M931 331

C932 330 933 330 934 330

L935 330

L933 331

C932 332 931 332 931 332

L930 332

L931 331

Z

M942 326

C945 324 948 323 949 323

L950 323

L944 326

C941 328 938 329 938 329

L937 329

L942 326

Z

M295 324

L294 323

L295 324

C296 325 297 325 297 326

L297 326

L297 326

C296 326 296 325 295 324

Z

M398 323

C399 321 401 320 401 320

L401 320

L399 323

C398 324 396 325 396 325

L396 325

L398 323

Z

M935 320

C938 318 941 317 942 317

L943 317

L937 320

C934 322 931 323 931 323

L930 323

L935 320

Z

M959 318

C963 316 968 314 969 314

L970 314

L960 319

C955 321 950 323 950 323

L950 323

L959 318

Z

M290 319

L289 318

L290 319

C291 320 292 320 292 321

L292 321

L292 321

C291 321 291 320 290 319

Z

M956 311

C958 309 961 308 962 308

L963 308

L958 311

C956 312 953 313 953 313

L952 313

L956 311

Z

M978 310

L979 309

L980 309

L980 310

L978 310

L977 311

L978 310

Z

M964 307

C965 306 966 306 967 306

L968 306

L966 307

C965 308 964 308 964 308

L963 308

L964 307

Z

M984 307

C985 306 986 306 987 306

L988 306

L986 307

C985 308 984 308 984 308

L983 308

L984 307

Z

M86 304

L85 303

L86 304

C87 305 88 305 88 306

L88 306

L88 306

C87 306 87 305 86 304

Z

M968 306

C968 305 970 304 973 303

L977 301

L977 301

C977 302 969 306 968 306

L968 306

L968 306

Z

M993 303

C993 303 996 302 1000 300

L1006 297

L1006 297

L1007 298

L1000 301

L993 304

L993 303

Z

M979 300

C980 299 981 299 982 299

L983 299

L981 300

C980 301 979 301 979 301

L978 301

L979 300

Z

M1010 296

C1010 296 1012 294 1014 293

L1018 291

L1018 292

C1018 292 1012 296 1011 296

L1010 296

L1010 296

Z

M205 293

L204 291

L206 292

C207 293 208 294 208 295

L208 295

L208 295

C207 295 206 294 205 293

Z

M995 293

C997 292 999 291 1000 291

L1001 291

L997 293

C995 294 993 295 993 295

L992 295

L995 293

Z

M72 290

L71 289

L72 290

C73 291 74 291 74 292

L74 292

L74 292

C73 292 73 291 72 290

Z

M1006 288

C1009 286 1012 285 1013 285

L1015 285

L1015 287

L1016 288

L1015 287

C1014 286 1012 286 1007 288

C1004 290 1001 291 1001 291

L1001 291

L1006 288

Z

M420 272

L420 271

L421 272

L421 273

L421 274

L420 274

L420 272

Z

M420 265

L420 264

L421 265

L421 266

L421 267

L420 267

L420 265

Z

M401 219

L400 218

L401 219

C402 220 403 220 403 221

L403 221

L403 221

C402 221 402 220 401 219

Z

M32 178

L32 175

L33 176

C33 177 33 179 33 180

L32 182

L32 178

Z

M32 170

L32 167

L33 168

C33 169 33 171 33 171

L32 173

L32 170

Z

M65 136

L65 132

L66 134

C66 135 66 137 66 138

L65 141

L65 136

Z

M65 126

L65 123

L66 124

C66 125 66 127 66 127

L65 129

L65 126

Z

"/>

<path fill="#ffffff" stroke="none" d="
"/>

<path fill="#ffffff" stroke="none" d="
"/>

<path fill="#ffffff" stroke="none" d="
"/>

<path fill="#ffffff" stroke="none" d="
"/>

<path fill="#ffffff" stroke="none" d="
"/>

<path fill="#ffffff" stroke="none" d="
"/>

</svg>

